<?xml version="1.0" encoding="utf-8"?>
<svg width="20px" height="20px" viewBox="0 0 20 20" version="1.1" xmlns:xlink="http://www.w3.org/1999/xlink" xmlns="http://www.w3.org/2000/svg">
  <desc>Created with Lunacy</desc>
  <defs>
    <path d="M0 9.6875C0 4.34578 4.34578 0 9.6875 0C15.0292 0 19.375 4.34578 19.375 9.6875C19.375 15.0292 15.0292 19.375 9.6875 19.375C4.34578 19.375 0 15.0292 0 9.6875ZM10.8359 6.49955C13.7783 5.3967 15.0238 3.72252 15.1727 3.51053C13.1377 1.7051 10.3725 1.02295 7.74841 1.65549C7.97712 1.96174 9.47998 4.0083 10.8359 6.49955ZM6.16956 2.21173C6.38772 2.51091 7.86636 4.56001 9.23741 6.99724C5.36683 8.02509 1.95772 8.01029 1.58765 8.0054C2.12421 5.43771 3.8546 3.30365 6.16956 2.21173ZM16.0926 4.46741C17.2451 5.87545 17.943 7.66885 17.9612 9.6219C17.6884 9.5642 14.9527 9.00932 12.1994 9.35557C11.9747 8.80709 11.7626 8.32459 11.4722 7.73002C14.5316 6.48092 15.9182 4.70338 16.0926 4.46741ZM1.41706 9.44729C1.41452 9.53132 1.41284 9.61553 1.41284 9.70014C1.41284 11.8254 2.21847 13.7658 3.54007 15.2328C4.88136 12.9367 7.59991 10.5167 10.5921 9.67397C10.3844 9.20389 10.1581 8.73331 9.9212 8.26971C5.78894 9.50639 1.77909 9.45471 1.41706 9.44729ZM12.7034 10.6599C13.7856 13.6339 14.2261 16.0562 14.3109 16.5596C16.1672 15.3044 17.4887 13.316 17.8575 11.0136C17.5745 10.9242 15.2963 10.2448 12.7034 10.6599ZM4.60852 16.228C5.47286 14.461 7.8186 12.1802 11.1546 11.0422C12.3163 14.061 12.7967 16.5911 12.9198 17.3171C10.2591 18.4504 7.05981 18.1395 4.60852 16.228Z" id="path_1" />
    <clipPath id="mask_1">
      <use xlink:href="#path_1" />
    </clipPath>
  </defs>
  <g id="Icons/Brands/dribbble">
    <path d="M0 9.6875C0 4.34578 4.34578 0 9.6875 0C15.0292 0 19.375 4.34578 19.375 9.6875C19.375 15.0292 15.0292 19.375 9.6875 19.375C4.34578 19.375 0 15.0292 0 9.6875ZM10.8359 6.49955C13.7783 5.3967 15.0238 3.72252 15.1727 3.51053C13.1377 1.7051 10.3725 1.02295 7.74841 1.65549C7.97712 1.96174 9.47998 4.0083 10.8359 6.49955ZM6.16956 2.21173C6.38772 2.51091 7.86636 4.56001 9.23741 6.99724C5.36683 8.02509 1.95772 8.01029 1.58765 8.0054C2.12421 5.43771 3.8546 3.30365 6.16956 2.21173ZM16.0926 4.46741C17.2451 5.87545 17.943 7.66885 17.9612 9.6219C17.6884 9.5642 14.9527 9.00932 12.1994 9.35557C11.9747 8.80709 11.7626 8.32459 11.4722 7.73002C14.5316 6.48092 15.9182 4.70338 16.0926 4.46741ZM1.41706 9.44729C1.41452 9.53132 1.41284 9.61553 1.41284 9.70014C1.41284 11.8254 2.21847 13.7658 3.54007 15.2328C4.88136 12.9367 7.59991 10.5167 10.5921 9.67397C10.3844 9.20389 10.1581 8.73331 9.9212 8.26971C5.78894 9.50639 1.77909 9.45471 1.41706 9.44729ZM12.7034 10.6599C13.7856 13.6339 14.2261 16.0562 14.3109 16.5596C16.1672 15.3044 17.4887 13.316 17.8575 11.0136C17.5745 10.9242 15.2963 10.2448 12.7034 10.6599ZM4.60852 16.228C5.47286 14.461 7.8186 12.1802 11.1546 11.0422C12.3163 14.061 12.7967 16.5911 12.9198 17.3171C10.2591 18.4504 7.05981 18.1395 4.60852 16.228Z" id="dribbble" fill="#FFFFFF" fill-rule="evenodd" stroke="none" />
  </g>
</svg>