<?xml version="1.0" encoding="utf-8"?>
<svg width="19px" height="14px" viewBox="0 0 19 14" version="1.1" xmlns:xlink="http://www.w3.org/1999/xlink" xmlns="http://www.w3.org/2000/svg">
  <desc>Created with Lunacy</desc>
  <defs>
    <path d="M16.8902 0.403805C17.7061 0.626027 18.3486 1.28085 18.5667 2.11229C18.963 3.61934 18.963 6.76364 18.963 6.76364C18.963 6.76364 18.963 9.90795 18.5667 11.415C18.3486 12.2464 17.7061 12.874 16.8902 13.0962C15.4114 13.5 9.48149 13.5 9.48149 13.5C9.48149 13.5 3.55163 13.5 2.07278 13.0962C1.25691 12.874 0.61434 12.2464 0.39625 11.415C0 9.90795 0 6.76364 0 6.76364C0 6.76364 0 3.61934 0.39625 2.11229C0.61434 1.28085 1.25691 0.626063 2.07278 0.403805C3.55163 0 9.48149 0 9.48149 0C9.48149 0 15.4114 0 16.8902 0.403805ZM7.54205 3.90887L7.54205 9.61846L12.4983 6.76374L7.54205 3.90887Z" id="path_1" />
    <clipPath id="mask_1">
      <use xlink:href="#path_1" />
    </clipPath>
  </defs>
  <g id="Group">
    <path d="M16.8902 0.403805C17.7061 0.626027 18.3486 1.28085 18.5667 2.11229C18.963 3.61934 18.963 6.76364 18.963 6.76364C18.963 6.76364 18.963 9.90795 18.5667 11.415C18.3486 12.2464 17.7061 12.874 16.8902 13.0962C15.4114 13.5 9.48149 13.5 9.48149 13.5C9.48149 13.5 3.55163 13.5 2.07278 13.0962C1.25691 12.874 0.61434 12.2464 0.39625 11.415C0 9.90795 0 6.76364 0 6.76364C0 6.76364 0 3.61934 0.39625 2.11229C0.61434 1.28085 1.25691 0.626063 2.07278 0.403805C3.55163 0 9.48149 0 9.48149 0C9.48149 0 15.4114 0 16.8902 0.403805ZM7.54205 3.90887L7.54205 9.61846L12.4983 6.76374L7.54205 3.90887Z" id="youtube" fill="#FFFFFF" fill-rule="evenodd" stroke="none" />
  </g>
</svg>